ply
format ascii 1.0
comment rotated
element vertex 800
property float x
property float y
property float z
end_header
8.620596 3.417559 0.000000
10.379514 5.063887 0.000000
6.619001 -1.159605 0.000000
8.955897 3.595989 0.000000
8.169175 1.196269 0.000000
5.704387 0.093585 0.000000
9.899756 3.083123 0.000000
8.281338 1.528264 0.000000
8.776836 2.570746 0.000000
6.187979 0.378532 0.000000
8.355336 0.450906 0.000000
8.526505 2.204203 0.000000
7.599071 0.127232 0.000000
5.913459 -1.108048 0.000000
11.307723 4.291927 0.000000
7.953270 1.279973 0.000000
9.717060 2.662141 0.000000
7.754711 0.058374 0.000000
7.305211 -0.282889 0.000000
7.831798 -0.073625 0.000000
7.228425 0.558490 0.000000
7.498142 2.197727 0.000000
8.679323 1.006502 0.000000
7.177188 1.853628 0.000000
4.915950 -1.009791 0.000000
7.606224 1.409343 0.000000
5.283185 -0.891694 0.000000
4.722745 -0.938916 0.000000
11.443594 3.746009 0.000000
8.563812 1.991473 0.000000
8.677463 2.649135 0.000000
7.011221 0.671000 0.000000
10.249738 4.605193 0.000000
9.408642 1.613057 0.000000
9.462054 3.415651 0.000000
6.850901 0.361359 0.000000
11.252095 4.324524 0.000000
10.320316 3.282759 0.000000
10.160338 3.916317 0.000000
4.957540 -0.522345 0.000000
6.214300 -0.382302 0.000000
5.853350 0.186020 0.000000
6.346882 -0.515648 0.000000
10.903841 3.193457 0.000000
5.138477 -2.687558 0.000000
5.465510 -2.389294 0.000000
6.399257 -0.525516 0.000000
5.936389 -1.109758 0.000000
5.624179 -0.345189 0.000000
9.591802 3.692819 0.000000
8.909988 1.053825 0.000000
4.728089 -2.646480 0.000000
7.647906 0.423635 0.000000
7.109742 0.658622 0.000000
5.601339 -1.989910 0.000000
9.591623 1.970466 0.000000
8.629858 3.299296 0.000000
8.960170 3.234799 0.000000
9.895583 2.406552 0.000000
4.425400 -2.424653 0.000000
11.242313 4.248164 0.000000
9.638677 3.875974 0.000000
10.670566 4.113666 0.000000
4.929808 -2.708578 0.000000
10.558286 4.648471 0.000000
10.164785 3.287354 0.000000
10.548202 3.291864 0.000000
5.128606 -1.809323 0.000000
9.520015 2.927884 0.000000
11.302397 4.272875 0.000000
9.455948 2.140161 0.000000
8.470911 1.598045 0.000000
11.659497 3.713726 0.000000
7.039561 1.224515 0.000000
8.995893 1.479398 0.000000
8.306130 0.430311 0.000000
10.671749 4.520688 0.000000
4.443489 -1.367489 0.000000
7.392523 1.694380 0.000000
9.159560 2.555415 0.000000
10.309190 2.890059 0.000000
8.079967 2.165162 0.000000
10.437475 4.416563 0.000000
11.312606 4.009165 0.000000
4.177194 -1.267583 0.000000
7.697586 -0.007207 0.000000
3.776149 -1.444389 0.000000
6.112753 0.545902 0.000000
7.823396 1.769067 0.000000
10.112700 4.767886 0.000000
9.964541 4.007545 0.000000
5.632212 -1.829094 0.000000
5.032521 -1.716873 0.000000
9.065629 1.267870 0.000000
8.211583 1.313701 0.000000
5.834789 -0.067641 0.000000
10.813580 3.906607 0.000000
11.090364 4.024577 0.000000
7.004933 0.688853 0.000000
10.061906 4.528873 0.000000
7.647636 -0.217779 0.000000
9.664944 2.755219 0.000000
8.141633 0.589206 0.000000
4.883414 -1.149827 0.000000
11.411969 3.711003 0.000000
7.270768 1.151128 0.000000
9.788887 2.598329 0.000000
7.315000 -0.122378 0.000000
3.809305 -1.542290 0.000000
5.684659 -2.262945 0.000000
7.889691 1.127912 0.000000
9.848200 1.909370 0.000000
6.683032 0.050840 0.000000
9.209258 2.626434 0.000000
9.485200 2.394999 0.000000
9.790674 2.164484 0.000000
7.950363 1.014948 0.000000
10.518499 4.419945 0.000000
7.352667 1.565617 0.000000
7.433261 0.934450 0.000000
5.575683 -0.756013 0.000000
6.891736 -0.540836 0.000000
4.893004 -2.294303 0.000000
9.250816 1.708726 0.000000
6.404856 -0.890030 0.000000
6.832664 -0.531260 0.000000
9.715870 3.185093 0.000000
6.518041 0.109565 0.000000
5.376226 0.048941 0.000000
5.918840 -1.528003 0.000000
9.571610 3.386543 0.000000
4.761383 -0.927059 0.000000
7.416223 1.000825 0.000000
8.223908 0.945167 0.000000
9.489279 2.231883 0.000000
9.422478 1.533503 0.000000
10.300697 3.164624 0.000000
4.263412 -1.630531 0.000000
7.028952 -0.836647 0.000000
6.670717 -0.709022 0.000000
5.033732 -0.968741 0.000000
5.937963 0.151635 0.000000
6.546454 -0.165711 0.000000
7.703054 1.677507 0.000000
9.144452 2.241747 0.000000
7.468636 -0.079061 0.000000
9.524354 2.650491 0.000000
6.556850 0.197246 0.000000
5.711866 0.393365 0.000000
8.729549 0.924006 0.000000
4.450136 -2.114736 0.000000
5.099031 -1.970643 0.000000
7.236630 0.674352 0.000000
11.633493 3.701306 0.000000
9.659174 2.544543 0.000000
4.463680 -1.217382 0.000000
10.200980 3.767764 0.000000
9.540929 2.815368 0.000000
8.916251 1.723838 0.000000
10.378851 3.221843 0.000000
7.315701 0.399275 0.000000
5.384574 -0.252076 0.000000
7.252706 1.988398 0.000000
8.260545 1.501250 0.000000
8.250257 1.362827 0.000000
7.798472 2.192879 0.000000
11.104622 4.312092 0.000000
10.599168 4.160512 0.000000
10.865654 3.518855 0.000000
9.615401 3.718344 0.000000
10.918699 4.423389 0.000000
4.552315 -1.159390 0.000000
5.770582 -0.021173 0.000000
8.196512 0.804637 0.000000
9.973841 3.997964 0.000000
7.440613 1.703509 0.000000
9.799935 2.778874 0.000000
5.738489 -1.773299 0.000000
6.781113 -1.211442 0.000000
9.536764 2.812112 0.000000
5.666430 -1.336740 0.000000
6.699701 0.269223 0.000000
6.606957 -0.861182 0.000000
6.258145 0.689646 0.000000
9.644086 2.373128 0.000000
7.280853 -0.078708 0.000000
8.246472 1.606137 0.000000
5.001143 -1.587893 0.000000
10.388158 2.996511 0.000000
7.231038 -0.000023 0.000000
9.345830 1.825828 0.000000
9.113223 3.145335 0.000000
5.393456 -0.428403 0.000000
10.601766 3.909428 0.000000
8.347492 2.367235 0.000000
6.990775 1.072314 0.000000
6.093753 -1.515144 0.000000
10.296692 5.029456 0.000000
9.178024 3.500253 0.000000
6.181773 -1.239861 0.000000
7.124699 -0.348747 0.000000
10.547550 2.902973 0.000000
9.723487 2.114881 0.000000
9.356852 3.472973 0.000000
7.455571 0.783954 0.000000
8.959016 3.173488 0.000000
6.677560 0.788287 0.000000
5.638803 -0.651094 0.000000
8.503033 2.444371 0.000000
11.875502 3.927420 0.000000
6.755360 -0.362799 0.000000
7.357530 1.161564 0.000000
9.752694 1.779125 0.000000
8.782391 0.875664 0.000000
9.759184 4.168687 0.000000
9.418977 3.353692 0.000000
5.036934 -2.212487 0.000000
11.086978 5.032831 0.000000
9.199586 3.440992 0.000000
10.674846 3.542592 0.000000
9.553699 1.655628 0.000000
9.735701 4.373999 0.000000
5.306510 -1.717174 0.000000
7.308290 -0.390534 0.000000
10.501641 3.892823 0.000000
5.339140 -0.487305 0.000000
5.239799 -2.133288 0.000000
10.191726 2.953959 0.000000
10.564528 3.251030 0.000000
4.747687 -0.447438 0.000000
10.761967 3.320309 0.000000
9.042273 2.670090 0.000000
7.369018 1.986062 0.000000
10.663012 3.078499 0.000000
6.591545 1.337535 0.000000
5.031809 -0.288320 0.000000
5.763239 0.265186 0.000000
8.268620 0.875478 0.000000
7.860387 1.653765 0.000000
9.620254 3.772380 0.000000
9.201255 3.990163 0.000000
8.855725 1.366040 0.000000
9.437663 3.604311 0.000000
5.876906 -1.164820 0.000000
5.105636 -2.397617 0.000000
10.581607 3.773441 0.000000
4.411597 -1.343096 0.000000
6.086954 -0.598252 0.000000
9.156475 2.676820 0.000000
6.487866 1.302602 0.000000
10.632050 3.760901 0.000000
6.236727 -0.022657 0.000000
4.567410 -2.399524 0.000000
6.570474 -0.318561 0.000000
8.103823 2.071392 0.000000
6.331913 0.984658 0.000000
8.015110 1.549133 0.000000
10.111803 4.285166 0.000000
11.326087 3.578401 0.000000
6.582098 -0.820657 0.000000
7.557705 0.977948 0.000000
8.854734 0.911335 0.000000
11.353648 4.068829 0.000000
11.329575 4.793007 0.000000
6.643422 -1.314261 0.000000
9.766399 2.514649 0.000000
6.946134 0.400033 0.000000
4.246778 -2.132111 0.000000
3.756215 -1.625364 0.000000
7.344037 1.169350 0.000000
7.866524 1.039574 0.000000
3.843877 -1.524693 0.000000
8.747318 2.967303 0.000000
6.796063 -0.638227 0.000000
8.774003 1.144081 0.000000
6.172077 0.083561 0.000000
5.390024 -1.026388 0.000000
6.762386 0.995920 0.000000
5.597593 -0.312751 0.000000
7.897431 1.665797 0.000000
5.010975 -0.199115 0.000000
7.840363 1.349583 0.000000
5.952878 -1.727210 0.000000
8.573152 2.915863 0.000000
9.974970 2.687319 0.000000
4.681334 -1.120124 0.000000
6.954309 1.661416 0.000000
4.515721 -1.513444 0.000000
8.386875 2.072703 0.000000
6.218536 -0.479295 0.000000
8.215515 1.246222 0.000000
8.159778 1.158226 0.000000
10.636205 4.436139 0.000000
7.820144 1.945065 0.000000
8.162854 2.081990 0.000000
7.559522 0.120711 0.000000
11.012403 4.409610 0.000000
9.375986 3.615082 0.000000
6.345373 -0.309133 0.000000
10.210563 3.728363 0.000000
6.966953 1.148055 0.000000
9.924391 3.794732 0.000000
10.239796 3.397598 0.000000
5.069209 -0.398181 0.000000
9.727912 2.187721 0.000000
5.647283 0.463029 0.000000
6.935508 -0.728326 0.000000
7.074355 -0.883360 0.000000
8.871865 3.389219 0.000000
6.278699 -1.028468 0.000000
3.974454 -1.961644 0.000000
8.910539 3.204437 0.000000
4.995669 -0.574751 0.000000
4.336476 -0.858872 0.000000
6.263658 -0.904672 0.000000
6.681867 0.690738 0.000000
8.201966 0.528366 0.000000
4.739843 -2.109527 0.000000
10.663777 5.062203 0.000000
9.543383 2.583277 0.000000
6.449392 0.121262 0.000000
6.541087 -0.034027 0.000000
7.258161 1.085188 0.000000
8.052339 2.804100 0.000000
5.956192 -1.886164 0.000000
5.524231 -0.852360 0.000000
9.856613 4.297627 0.000000
6.131218 -0.507226 0.000000
7.577330 -0.200561 0.000000
10.368100 3.953545 0.000000
9.219540 2.158787 0.000000
7.197147 -0.364611 0.000000
8.633770 3.035202 0.000000
4.401528 -2.123166 0.000000
8.881927 3.521631 0.000000
7.303844 1.583603 0.000000
9.770056 3.730076 0.000000
11.743200 3.757415 0.000000
10.941280 4.151347 0.000000
11.150187 3.708763 0.000000
7.333526 1.909651 0.000000
7.299690 -0.206512 0.000000
7.883746 0.692846 0.000000
9.147384 2.609219 0.000000
10.878356 3.623261 0.000000
6.166821 -1.239592 0.000000
10.645352 4.339860 0.000000
10.638429 2.889960 0.000000
11.839296 4.003819 0.000000
10.697886 3.750754 0.000000
5.960282 -0.001371 0.000000
4.964606 -1.466163 0.000000
5.195627 -1.608298 0.000000
6.259166 -0.140647 0.000000
8.826108 1.859761 0.000000
9.363493 4.011314 0.000000
11.281013 3.436307 0.000000
8.458283 2.362922 0.000000
3.779355 -1.699717 0.000000
5.180594 -0.545677 0.000000
5.444897 -2.034556 0.000000
7.150589 -0.012405 0.000000
7.531028 1.559146 0.000000
5.187688 -2.573959 0.000000
6.315966 0.612257 0.000000
5.250304 -0.716320 0.000000
8.543657 2.607297 0.000000
8.141139 0.424664 0.000000
7.487358 1.517491 0.000000
7.062830 0.985646 0.000000
10.584978 4.935182 0.000000
6.459581 -1.422768 0.000000
8.620685 0.686051 0.000000
9.676917 2.731940 0.000000
8.727066 1.147903 0.000000
10.779495 4.358845 0.000000
6.375313 0.969967 0.000000
7.725047 0.832319 0.000000
4.431007 -1.179112 0.000000
9.305933 1.306615 0.000000
6.799651 -0.723718 0.000000
6.090531 -1.823419 0.000000
8.386348 1.314488 0.000000
7.479628 2.048376 0.000000
5.399383 -2.326395 0.000000
9.079536 2.794722 0.000000
8.772224 2.049247 0.000000
5.009360 -0.336252 0.000000
8.146138 0.492674 0.000000
9.793600 2.393305 0.000000
8.701897 0.785455 0.000000
7.182853 0.410207 0.000000
6.886362 -0.327808 0.000000
8.085904 2.546369 0.000000
10.784986 4.496017 0.000000
8.881498 2.618409 0.000000
4.776298 -1.719231 0.000000
8.127639 0.387431 0.000000
10.669726 3.928429 0.000000
4.254436 -0.918536 0.000000
2.706830 1.655555 0.000000
0.094279 4.432805 0.000000
1.129169 3.199267 0.000000
1.044772 1.246673 0.000000
4.692313 -2.048992 0.000000
0.097149 1.911680 0.000000
4.252501 -1.394045 0.000000
-0.406863 2.714051 0.000000
3.900462 -0.563201 0.000000
3.008623 0.906583 0.000000
3.758539 0.714936 0.000000
-0.013178 4.132285 0.000000
5.432556 -0.777835 0.000000
1.076510 1.075937 0.000000
4.012698 -1.978248 0.000000
0.951614 2.918932 0.000000
-0.990663 3.809075 0.000000
2.285364 0.431645 0.000000
2.016612 0.919278 0.000000
-1.176321 3.939419 0.000000
2.039315 1.407246 0.000000
2.174622 1.070306 0.000000
1.635279 1.814088 0.000000
1.077771 2.824951 0.000000
4.791706 -1.696735 0.000000
-0.450725 3.161531 0.000000
2.155557 0.314529 0.000000
4.982650 -1.994188 0.000000
0.489922 3.608224 0.000000
3.404704 0.735581 0.000000
5.233441 -1.347148 0.000000
0.849471 1.812460 0.000000
-0.391789 4.055148 0.000000
-0.470288 4.084442 0.000000
-1.086848 4.456559 0.000000
-0.357816 3.913392 0.000000
5.680358 -2.289364 0.000000
3.110965 0.488387 0.000000
0.223908 3.799848 0.000000
2.565238 -0.255162 0.000000
1.806541 2.313721 0.000000
0.904864 1.479480 0.000000
2.513108 -0.324655 0.000000
-0.015211 4.775982 0.000000
2.795029 1.911752 0.000000
1.798950 0.371991 0.000000
-1.426632 4.680342 0.000000
1.773816 0.752965 0.000000
4.424915 -1.052153 0.000000
2.546099 1.801997 0.000000
0.588401 4.100336 0.000000
0.403737 3.390201 0.000000
-0.075617 3.076613 0.000000
0.846747 2.859715 0.000000
3.643645 -0.761172 0.000000
0.190830 4.382540 0.000000
-0.086667 4.548531 0.000000
4.416592 -0.837674 0.000000
4.536874 -1.618204 0.000000
-1.483653 4.313485 0.000000
-1.092717 3.187238 0.000000
-0.162388 4.469878 0.000000
-0.630689 3.904566 0.000000
1.629503 1.290112 0.000000
1.095500 2.237001 0.000000
2.301573 2.014168 0.000000
4.814148 -2.461685 0.000000
0.941406 3.484412 0.000000
2.696032 1.842506 0.000000
1.758852 2.918842 0.000000
2.007933 1.116333 0.000000
1.829452 0.784714 0.000000
4.313675 -1.256860 0.000000
3.500005 -0.558388 0.000000
4.125861 -1.627623 0.000000
4.475235 -0.757626 0.000000
-1.205941 4.554037 0.000000
5.141611 -0.693038 0.000000
3.141380 -1.050561 0.000000
1.734467 2.086666 0.000000
1.764359 2.393587 0.000000
4.985315 -0.837162 0.000000
0.640668 3.865528 0.000000
0.478787 3.583232 0.000000
4.634032 -0.009789 0.000000
3.429268 -0.488374 0.000000
-0.920930 4.344221 0.000000
-0.818467 2.858290 0.000000
0.075669 1.944010 0.000000
4.758114 -2.078933 0.000000
2.184989 0.100137 0.000000
1.413133 1.322856 0.000000
3.925179 -1.424425 0.000000
1.870893 0.209774 0.000000
2.036056 2.535845 0.000000
2.696727 -0.673468 0.000000
0.518864 3.563091 0.000000
-0.727706 3.158046 0.000000
4.001823 0.578352 0.000000
0.332403 4.192806 0.000000
5.192359 -1.342847 0.000000
0.027043 3.874322 0.000000
3.927442 -1.912341 0.000000
5.806435 -1.020798 0.000000
1.703405 2.779480 0.000000
2.928770 1.602972 0.000000
-0.487443 4.352069 0.000000
2.919467 0.055738 0.000000
4.233337 0.294283 0.000000
1.871537 0.952998 0.000000
2.571768 1.019821 0.000000
2.705567 -0.423485 0.000000
1.398350 3.209334 0.000000
-0.171834 2.569993 0.000000
-0.713455 3.349560 0.000000
-1.089814 4.668456 0.000000
4.195047 -0.033865 0.000000
0.812349 2.939441 0.000000
2.540460 0.116114 0.000000
0.213641 1.789026 0.000000
2.705074 1.436471 0.000000
-0.633743 5.420331 0.000000
0.991274 3.299507 0.000000
-1.084300 4.385961 0.000000
0.373994 4.182246 0.000000
-0.804862 3.964086 0.000000
-0.016444 3.501182 0.000000
2.428018 0.921509 0.000000
3.852623 -0.586551 0.000000
3.477726 0.714844 0.000000
5.601872 -2.111944 0.000000
1.742714 1.153097 0.000000
1.793793 0.936389 0.000000
1.339301 0.767464 0.000000
-1.062678 4.712203 0.000000
-1.119739 3.770168 0.000000
4.066011 -1.647025 0.000000
3.316262 0.533049 0.000000
2.965552 0.961198 0.000000
3.514355 0.613060 0.000000
0.065946 3.358384 0.000000
2.558878 1.969890 0.000000
2.278832 2.369545 0.000000
0.110078 4.173512 0.000000
0.200092 3.597638 0.000000
4.494650 -1.635597 0.000000
1.341956 3.438232 0.000000
2.308689 0.466685 0.000000
3.203118 -0.629917 0.000000
5.271614 -2.021013 0.000000
1.635010 0.525759 0.000000
3.870483 0.897117 0.000000
4.053705 -0.389364 0.000000
0.875578 2.699720 0.000000
0.486353 3.368519 0.000000
3.971974 -0.566179 0.000000
4.695698 -2.605009 0.000000
-0.135649 3.867527 0.000000
5.942397 -1.916751 0.000000
-1.037014 4.215758 0.000000
1.633035 2.508920 0.000000
3.045229 -0.403172 0.000000
3.570070 -0.944206 0.000000
5.164598 -2.708042 0.000000
3.861046 -0.808886 0.000000
5.223970 -0.828258 0.000000
1.842176 2.499513 0.000000
4.363740 -1.280950 0.000000
2.095162 1.571117 0.000000
1.846635 2.192141 0.000000
3.233645 -0.551409 0.000000
4.989841 -2.514266 0.000000
6.111327 -1.361824 0.000000
5.687054 -1.940338 0.000000
1.161531 3.614332 0.000000
3.228991 -0.273673 0.000000
0.363544 3.624930 0.000000
2.261997 0.367621 0.000000
2.166213 0.572573 0.000000
2.097311 1.350567 0.000000
0.410115 2.493902 0.000000
3.303095 -0.828990 0.000000
4.512017 -1.768478 0.000000
1.118637 0.982475 0.000000
3.684124 0.308286 0.000000
2.567072 0.824844 0.000000
0.558676 1.707884 0.000000
1.748815 0.736809 0.000000
0.758972 1.531039 0.000000
2.018262 1.714412 0.000000
-0.097917 2.364384 0.000000
1.074991 3.058442 0.000000
1.251714 0.806300 0.000000
0.552101 2.153240 0.000000
0.082594 4.436592 0.000000
2.959537 1.072776 0.000000
2.184517 0.021868 0.000000
0.757215 3.565280 0.000000
1.577979 1.816535 0.000000
5.695438 -1.300374 0.000000
-0.458610 4.157759 0.000000
5.746588 -1.818073 0.000000
1.113062 3.696985 0.000000
-0.036913 2.694057 0.000000
-0.857121 4.621905 0.000000
5.268205 -1.966219 0.000000
0.835378 1.276209 0.000000
1.995175 0.045754 0.000000
2.830687 -0.493457 0.000000
5.279306 -1.443397 0.000000
1.823524 1.780655 0.000000
2.395338 1.169997 0.000000
4.305741 -2.215636 0.000000
1.332740 1.994650 0.000000
1.089498 3.525731 0.000000
0.136803 2.987757 0.000000
-0.518181 4.285729 0.000000
3.207435 0.998226 0.000000
-0.630604 4.847880 0.000000
-0.385137 3.853883 0.000000
4.116745 0.309910 0.000000
4.427191 -1.320207 0.000000
3.178134 1.335470 0.000000
2.497879 0.181586 0.000000
1.325336 1.467236 0.000000
0.949960 1.200288 0.000000
0.821914 3.428331 0.000000
1.984339 1.195272 0.000000
4.582812 -1.934772 0.000000
-0.741235 3.396837 0.000000
4.084406 0.465138 0.000000
-0.688774 5.047446 0.000000
4.949414 -1.383792 0.000000
-0.904547 4.647171 0.000000
5.027247 -1.685652 0.000000
3.920228 -0.812428 0.000000
5.965310 -1.375950 0.000000
0.191740 2.163546 0.000000
-0.420747 3.604293 0.000000
2.417938 0.556630 0.000000
-0.861151 4.270134 0.000000
1.473144 1.821234 0.000000
1.278997 2.188644 0.000000
-0.780141 3.175892 0.000000
3.626997 -0.175614 0.000000
2.837795 -0.152131 0.000000
-1.145364 3.666731 0.000000
-1.279085 3.462463 0.000000
-0.826222 4.983330 0.000000
-0.772466 3.981454 0.000000
4.985552 -1.213136 0.000000
0.204362 3.853583 0.000000
3.062703 0.858695 0.000000
-1.340635 4.671412 0.000000
2.209041 0.888102 0.000000
1.615475 1.447900 0.000000
2.159091 1.651240 0.000000
3.424721 -0.025231 0.000000
5.670368 -1.268659 0.000000
-0.096195 4.570226 0.000000
-0.434566 2.916984 0.000000
4.206060 -1.820733 0.000000
0.398940 3.384103 0.000000
1.000593 1.851402 0.000000
2.133179 -0.080654 0.000000
4.460530 0.052931 0.000000
-0.758314 3.400087 0.000000
1.363123 3.265280 0.000000
2.141499 1.887712 0.000000
1.768254 2.388855 0.000000
4.640974 -2.071155 0.000000
1.980082 0.682320 0.000000
4.367516 -0.893148 0.000000
3.769891 -1.283119 0.000000
0.755820 2.108071 0.000000
-0.988937 3.898171 0.000000
2.370760 0.080741 0.000000
3.821163 -1.240818 0.000000
1.527847 2.702514 0.000000
-0.923772 3.396673 0.000000
-0.251168 2.331658 0.000000
-0.252999 4.033084 0.000000
2.586234 2.174263 0.000000
0.151839 2.784975 0.000000
4.177399 -1.841789 0.000000
3.343976 0.269323 0.000000
3.527250 1.036307 0.000000
2.493424 1.724238 0.000000
-0.689192 4.449932 0.000000
-0.736653 3.627767 0.000000
4.815095 -1.282427 0.000000
3.907232 -1.649153 0.000000
3.431273 0.489074 0.000000
3.969571 0.081310 0.000000
2.017674 2.711848 0.000000
-1.015333 3.751848 0.000000
-1.778327 3.830530 0.000000
1.149936 2.393278 0.000000
0.072872 3.926233 0.000000
2.404065 1.831545 0.000000
3.800894 -1.252918 0.000000
1.660067 1.080282 0.000000
1.799886 1.649940 0.000000
0.217572 2.717508 0.000000
4.662139 -0.228245 0.000000
3.065650 0.274346 0.000000
3.556712 0.704838 0.000000
-0.963142 4.605383 0.000000
2.954150 1.232479 0.000000
0.131150 2.809791 0.000000
0.866762 3.484839 0.000000
3.510623 -0.734015 0.000000
1.728571 1.816030 0.000000
-1.021025 3.626328 0.000000
2.312341 1.032651 0.000000
-1.233022 4.132958 0.000000
3.860727 -1.106376 0.000000
5.843139 -1.108093 0.000000
-1.077152 3.529910 0.000000
0.119436 4.107458 0.000000
-0.626851 5.410490 0.000000
0.224108 1.832182 0.000000
-0.634810 4.611958 0.000000
-0.489741 3.205084 0.000000
-0.913737 3.028254 0.000000
1.545333 1.594211 0.000000
3.618872 1.026324 0.000000
-1.591685 3.624962 0.000000
2.775866 0.886926 0.000000
1.899053 1.519110 0.000000
3.080647 1.389656 0.000000
1.124928 1.112665 0.000000
2.636850 1.290797 0.000000
5.622638 -1.698998 0.000000
-0.290801 4.183245 0.000000
3.190323 1.475001 0.000000
1.999561 2.328482 0.000000
4.075152 -1.956435 0.000000
5.642256 -2.309833 0.000000
3.828328 -0.702747 0.000000
0.456439 2.420790 0.000000
4.936875 -1.660302 0.000000
-0.883472 3.970137 0.000000
4.090973 -0.868148 0.000000
4.938190 -0.168419 0.000000
3.841891 -1.591199 0.000000
6.205366 -1.596903 0.000000
0.221668 3.136646 0.000000
-0.305324 4.069533 0.000000
1.831270 2.516842 0.000000
4.178997 -1.159453 0.000000
3.591488 -0.374071 0.000000
2.213837 0.944457 0.000000
-1.218295 4.278195 0.000000
4.559858 0.057934 0.000000
0.998766 3.345802 0.000000
2.046781 0.261517 0.000000
3.046811 -0.740992 0.000000
2.381286 0.828911 0.000000
4.636015 -2.356970 0.000000
0.227957 3.523102 0.000000
3.482806 -1.076385 0.000000
0.609309 2.868186 0.000000
4.526915 -2.506493 0.000000
-1.305832 4.201302 0.000000
4.592870 -0.677486 0.000000
-0.557395 3.926464 0.000000
0.659642 4.107322 0.000000
-0.607634 5.079973 0.000000
2.128605 0.887000 0.000000
-0.079148 2.207803 0.000000
3.574576 0.817216 0.000000
4.985000 -0.407640 0.000000
3.027522 1.293562 0.000000
4.008926 -1.647029 0.000000
-0.532839 5.355369 0.000000
4.685128 -1.953741 0.000000
1.857824 2.190536 0.000000
1.854387 2.713924 0.000000
1.528515 1.138109 0.000000
1.602110 2.966833 0.000000
4.616151 -1.740805 0.000000
2.456283 2.305430 0.000000
3.366862 -0.571339 0.000000
-0.299687 4.996411 0.000000
-0.312937 2.464384 0.000000
-0.873654 4.879778 0.000000
5.486957 -1.981920 0.000000
3.659624 -0.307984 0.000000
3.934222 -1.302085 0.000000
5.918988 -1.923262 0.000000
3.556344 -1.016653 0.000000
0.982165 2.581507 0.000000
3.724098 -1.007812 0.000000
2.752255 1.950651 0.000000
-1.237331 3.318313 0.000000
0.376849 2.188068 0.000000
2.552230 0.133128 0.000000
2.951827 0.219333 0.000000
2.106591 0.551669 0.000000
