ply
format ascii 1.0
comment ref L-shape
element vertex 800
property float x
property float y
property float z
end_header
7.098047 1.977751 0.000000
9.505920 1.898139 0.000000
2.446163 0.156549 0.000000
7.461310 1.866827 0.000000
5.208156 0.726265 0.000000
2.685571 1.689418 0.000000
7.766068 0.836767 0.000000
5.522223 0.881710 0.000000
6.609738 1.268486 0.000000
3.229011 1.548955 0.000000
4.812740 0.067578 0.000000
6.173543 1.186312 0.000000
4.049108 0.373466 0.000000
1.983725 0.691899 0.000000
9.616405 0.695937 0.000000
5.114675 0.938121 0.000000
7.339204 0.668273 0.000000
4.110472 0.214722 0.000000
3.551318 0.291257 0.000000
4.071643 0.066876 0.000000
4.091966 0.940498 0.000000
5.441801 1.908895 0.000000
5.434699 0.231350 0.000000
4.971538 1.892529 0.000000
1.347858 1.466723 0.000000
4.960755 1.274998 0.000000
1.691039 1.290556 0.000000
1.261358 1.653455 0.000000
9.326457 0.213840 0.000000
6.049500 1.009509 0.000000
6.594901 1.394182 0.000000
4.017937 1.173641 0.000000
9.089809 1.665558 0.000000
6.379305 0.144543 0.000000
7.691699 1.381402 0.000000
3.685625 1.068055 0.000000
9.600119 0.758322 0.000000
8.204613 0.680550 0.000000
8.539485 1.241665 0.000000
1.721943 1.781991 0.000000
2.709632 0.992352 0.000000
2.856266 1.649446 0.000000
2.709092 0.804313 0.000000
8.554082 0.204789 0.000000
0.318848 0.123011 0.000000
0.761000 0.102669 0.000000
2.739149 0.760300 0.000000
1.998730 0.674476 0.000000
2.318596 1.435874 0.000000
7.979432 1.485643 0.000000
5.631266 0.101708 0.000000
0.057707 0.442247 0.000000
4.293228 0.548524 0.000000
4.078849 1.095224 0.000000
1.139453 0.289030 0.000000
6.761418 0.267882 0.000000
7.020972 1.887578 0.000000
7.208932 1.608406 0.000000
7.284709 0.361310 0.000000
0.000528 0.813136 0.000000
9.539208 0.711244 0.000000
8.142088 1.582008 0.000000
9.039817 1.020426 0.000000
0.156433 0.255699 0.000000
9.338588 1.477984 0.000000
8.097885 0.793776 0.000000
8.372191 0.525848 0.000000
0.932874 0.750997 0.000000
7.387780 0.995513 0.000000
9.599167 0.686231 0.000000
6.785473 0.483812 0.000000
5.705614 0.797004 0.000000
9.456297 0.038346 0.000000
4.429371 1.544996 0.000000
5.992936 0.341890 0.000000
4.763383 0.087809 0.000000
9.328462 1.307397 0.000000
0.760847 1.547872 0.000000
5.011197 1.627658 0.000000
6.869524 0.987018 0.000000
7.919065 0.410736 0.000000
5.830186 1.474455 0.000000
9.089177 1.399426 0.000000
9.419914 0.492541 0.000000
0.643192 1.806816 0.000000
4.023705 0.208743 0.000000
0.234590 1.965376 0.000000
3.294167 1.720496 0.000000
5.368682 1.375797 0.000000
9.107949 1.877500 0.000000
8.465543 1.444622 0.000000
1.274997 0.380914 0.000000
0.930304 0.884312 0.000000
5.892673 0.143006 0.000000
5.321180 0.779315 0.000000
2.663776 1.483206 0.000000
8.994531 0.772887 0.000000
9.273664 0.660588 0.000000
4.026114 1.190711 0.000000
8.903026 1.744409 0.000000
3.839489 0.095166 0.000000
7.368168 0.770941 0.000000
4.759422 0.316481 0.000000
1.225832 1.390709 0.000000
9.279342 0.211449 0.000000
4.540966 1.329616 0.000000
7.344870 0.572362 0.000000
3.671738 0.397834 0.000000
0.188809 1.872705 0.000000
1.005304 0.037049 0.000000
4.962195 0.875555 0.000000
6.899644 0.043254 0.000000
3.347353 0.967186 0.000000
6.954885 1.002095 0.000000
6.986356 0.643325 0.000000
7.039359 0.264324 0.000000
4.925219 0.752775 0.000000
9.148862 1.344526 0.000000
4.891965 1.564792 0.000000
4.502652 1.061501 0.000000
1.993808 1.179669 0.000000
3.076551 0.401233 0.000000
0.423345 0.574661 0.000000
6.335353 0.323791 0.000000
2.485357 0.498591 0.000000
3.041553 0.449774 0.000000
7.708145 1.038898 0.000000
3.272212 1.125378 0.000000
2.421959 1.889895 0.000000
1.690577 0.391141 0.000000
7.748584 1.283351 0.000000
1.297063 1.634519 0.000000
4.537538 1.120483 0.000000
5.069301 0.510007 0.000000
6.873899 0.525100 0.000000
6.332835 0.078506 0.000000
8.107207 0.610888 0.000000
0.447514 1.489207 0.000000
2.964407 0.095036 0.000000
2.801341 0.438591 0.000000
1.460169 1.412465 0.000000
2.891783 1.565303 0.000000
3.097653 0.910637 0.000000
5.218845 1.396149 0.000000
6.637045 0.775904 0.000000
3.811005 0.319826 0.000000
7.194702 0.796299 0.000000
3.361653 1.159936 0.000000
2.902837 1.896107 0.000000
5.411881 0.137502 0.000000
0.237164 1.014788 0.000000
0.797891 0.657840 0.000000
4.179695 1.016623 0.000000
9.429127 0.047951 0.000000
7.215118 0.626051 0.000000
0.881266 1.639736 0.000000
8.463180 1.107883 0.000000
7.323008 0.901165 0.000000
6.109465 0.571050 0.000000
8.202930 0.596085 0.000000
4.041098 0.766203 0.000000
2.215011 1.671141 0.000000
5.120234 1.934426 0.000000
5.488418 0.877311 0.000000
5.383264 0.786706 0.000000
5.650738 1.693102 0.000000
9.487049 0.853811 0.000000
9.022456 1.104036 0.000000
8.757170 0.461883 0.000000
8.014168 1.487005 0.000000
9.434281 1.063977 0.000000
0.984946 1.618069 0.000000
2.651233 1.561465 0.000000
4.950559 0.430010 0.000000
8.465345 1.431271 0.000000
5.051657 1.600109 0.000000
7.480347 0.692214 0.000000
1.389599 0.345218 0.000000
2.524138 0.005264 0.000000
7.317761 0.901807 0.000000
1.647340 0.704865 0.000000
3.513559 1.109820 0.000000
2.648663 0.376082 0.000000
3.498617 1.719331 0.000000
7.083240 0.515510 0.000000
3.678472 0.452859 0.000000
5.552633 0.961428 0.000000
0.999319 0.997702 0.000000
8.050177 0.430170 0.000000
3.698886 0.543721 0.000000
6.485342 0.339410 0.000000
7.253896 1.436920 0.000000
2.096609 1.540178 0.000000
8.846750 0.924657 0.000000
6.162243 1.428174 0.000000
4.287251 1.471871 0.000000
1.823352 0.276551 0.000000
9.423009 1.932356 0.000000
7.550682 1.642064 0.000000
2.080246 0.408967 0.000000
3.377108 0.372330 0.000000
8.096743 0.251322 0.000000
6.956777 0.276757 0.000000
7.657843 1.496324 0.000000
4.412011 0.939309 0.000000
7.164763 1.565868 0.000000
3.864937 1.492510 0.000000
2.112629 1.209225 0.000000
6.326770 1.372733 0.000000
9.760139 0.036711 0.000000
3.106010 0.623555 0.000000
4.609696 1.275644 0.000000
6.740014 0.018690 0.000000
5.415063 0.065954 0.000000
8.434278 1.703776 0.000000
7.617427 1.368050 0.000000
0.582972 0.530739 0.000000
9.984212 1.375926 0.000000
7.524025 1.584913 0.000000
8.639033 0.613589 0.000000
6.511977 0.072075 0.000000
8.562851 1.865558 0.000000
1.123830 0.690360 0.000000
3.477378 0.212964 0.000000
8.764209 0.983714 0.000000
2.016552 1.536936 0.000000
0.782421 0.443295 0.000000
7.881189 0.538980 0.000000
8.354862 0.485430 0.000000
1.626522 1.983346 0.000000
8.543460 0.394807 0.000000
6.867678 1.151040 0.000000
5.200827 1.850529 0.000000
8.302502 0.293793 0.000000
4.192492 1.941708 0.000000
1.939940 1.894954 0.000000
2.848527 1.769144 0.000000
5.051640 0.429113 0.000000
5.313308 1.268110 0.000000
8.055808 1.521783 0.000000
7.913527 1.972056 0.000000
5.813666 0.360848 0.000000
7.807855 1.532052 0.000000
1.917735 0.677602 0.000000
0.500645 0.351253 0.000000
8.736338 0.842754 0.000000
0.755545 1.587672 0.000000
2.466884 0.929700 0.000000
6.953189 1.075046 0.000000
4.094479 1.990319 0.000000
8.763140 0.798219 0.000000
2.979798 1.230802 0.000000
0.118713 0.730488 0.000000
3.006556 0.785571 0.000000
5.780750 1.391282 0.000000
3.759384 1.875774 0.000000
5.348728 1.084718 0.000000
8.765981 1.536800 0.000000
9.124851 0.178413 0.000000
2.659741 0.422316 0.000000
4.621405 1.004263 0.000000
5.491440 0.040023 0.000000
9.491125 0.505710 0.000000
9.986173 1.034803 0.000000
2.354072 0.029922 0.000000
7.269799 0.529093 0.000000
3.780311 1.028062 0.000000
0.081082 1.146298 0.000000
0.092525 1.851503 0.000000
4.605660 1.290691 0.000000
4.883349 0.829472 0.000000
0.225697 1.860702 0.000000
6.869274 1.569766 0.000000
2.940034 0.400018 0.000000
5.598931 0.261685 0.000000
3.009191 1.351623 0.000000
1.671343 1.119766 0.000000
4.071737 1.579347 0.000000
2.322734 1.477610 0.000000
5.348010 1.250423 0.000000
1.988285 1.972764 0.000000
5.084060 1.067179 0.000000
1.573785 0.226212 0.000000
6.709747 1.656547 0.000000
7.539377 0.503707 0.000000
1.103942 1.554604 0.000000
4.678024 1.914214 0.000000
0.708717 1.393591 0.000000
5.981824 1.192060 0.000000
2.644043 0.920772 0.000000
5.276245 0.728820 0.000000
5.174610 0.706010 0.000000
9.243543 1.272745 0.000000
5.490832 1.502546 0.000000
5.829985 1.357034 0.000000
4.016531 0.396820 0.000000
9.490796 0.987974 0.000000
7.771859 1.583280 0.000000
2.854053 0.951408 0.000000
8.442096 1.073247 0.000000
4.323964 1.542272 0.000000
8.286671 1.322531 0.000000
8.228881 0.818690 0.000000
1.888702 1.790825 0.000000
7.011411 0.325134 0.000000
2.906430 1.991033 0.000000
2.974927 0.237705 0.000000
2.963481 0.029900 0.000000
7.255682 1.780038 0.000000
2.298260 0.489907 0.000000
0.009058 1.459399 0.000000
7.152369 1.622031 0.000000
1.711847 1.717973 0.000000
1.044824 1.983188 0.000000
2.375161 0.588079 0.000000
3.799005 1.420487 0.000000
4.759063 0.230800 0.000000
0.445700 0.813619 0.000000
9.705733 1.695943 0.000000
7.160631 0.735316 0.000000
3.231941 1.182191 0.000000
3.186973 1.007547 0.000000
4.485425 1.291903 0.000000
6.262448 1.945789 0.000000
1.463731 0.111471 0.000000
1.889298 1.147923 0.000000
8.594346 1.726058 0.000000
2.562549 0.962765 0.000000
3.801950 0.157054 0.000000
8.712719 1.121079 0.000000
6.631478 0.664148 0.000000
3.417119 0.309884 0.000000
6.836995 1.698069 0.000000
0.196832 1.043199 0.000000
7.356427 1.866553 0.000000
4.870160 1.612033 0.000000
8.131821 1.385944 0.000000
9.546377 0.010051 0.000000
9.257885 0.855647 0.000000
9.092650 0.394973 0.000000
5.121700 1.821596 0.000000
3.601421 0.349168 0.000000
4.650353 0.572120 0.000000
6.898960 1.033674 0.000000
8.839978 0.526727 0.000000
2.069863 0.419729 0.000000
9.181932 1.198199 0.000000
8.151802 0.177859 0.000000
9.788560 0.116336 0.000000
8.802518 0.744491 0.000000
2.799373 1.441329 0.000000
1.059559 1.109614 0.000000
1.122411 0.845753 0.000000
2.912233 1.131503 0.000000
6.141837 0.730903 0.000000
8.043203 1.872293 0.000000
8.992503 0.109810 0.000000
6.237534 1.346783 0.000000
0.056313 1.782565 0.000000
1.863168 1.607769 0.000000
0.997262 0.368082 0.000000
3.633245 0.591853 0.000000
5.013510 1.434096 0.000000
0.433972 0.168541 0.000000
3.484780 1.623723 0.000000
1.791797 1.437814 0.000000
6.470702 1.459213 0.000000
4.642724 0.200483 0.000000
4.953176 1.435521 0.000000
4.276918 1.359636 0.000000
9.560197 1.661845 0.000000
2.147351 0.083192 0.000000
5.166643 0.046221 0.000000
7.360174 0.746014 0.000000
5.568444 0.297577 0.000000
9.290209 1.116769 0.000000
3.779684 1.834698 0.000000
4.636758 0.782959 0.000000
0.885223 1.689901 0.000000
6.089991 0.000482 0.000000
2.882120 0.337029 0.000000
1.603090 0.060847 0.000000
5.445313 0.656294 0.000000
5.323103 1.816379 0.000000
0.758716 0.193904 0.000000
6.982155 1.212820 0.000000
6.237722 0.902992 0.000000
1.890173 1.876936 0.000000
4.694349 0.245038 0.000000
7.203229 0.424056 0.000000
5.294357 0.059084 0.000000
3.954891 0.867870 0.000000
3.223385 0.555666 0.000000
6.103939 1.739812 0.000000
9.391087 1.209882 0.000000
6.717448 1.228181 0.000000
0.747459 1.063821 0.000000
4.606850 0.183701 0.000000
8.908241 0.890037 0.000000
0.944624 1.999010 0.000000
1.670459 4.913491 0.000000
1.786918 8.724655 0.000000
1.646453 7.120634 0.000000
0.206083 5.799620 0.000000
0.454897 0.890032 0.000000
0.006243 6.939921 0.000000
0.607020 1.664143 0.000000
0.217215 7.863674 0.000000
0.945587 2.500568 0.000000
1.354255 4.170487 0.000000
1.749011 3.504702 0.000000
1.498434 8.588139 0.000000
1.877171 1.265445 0.000000
0.107797 5.656449 0.000000
0.024360 1.420616 0.000000
1.322676 7.047958 0.000000
0.578705 9.050781 0.000000
0.507002 4.346077 0.000000
0.661774 4.880923 0.000000
0.539592 9.274228 0.000000
1.022873 5.209914 0.000000
0.880297 4.875984 0.000000
1.024857 5.783291 0.000000
1.345427 6.892297 0.000000
0.774261 1.068834 0.000000
0.502615 8.211105 0.000000
0.332401 4.355050 0.000000
0.698948 0.723485 0.000000
1.483613 7.861827 0.000000
1.513410 3.769500 0.000000
1.333811 1.003675 0.000000
0.468056 6.337790 0.000000
1.176172 8.801314 0.000000
1.141379 8.877535 0.000000
0.968532 9.576635 0.000000
1.099958 8.677055 0.000000
0.983581 0.021409 0.000000
1.130913 3.802412 0.000000
1.431012 8.185426 0.000000
0.219256 3.662530 0.000000
1.499252 6.015485 0.000000
0.271772 6.063169 0.000000
0.133256 3.650253 0.000000
1.952159 9.044739 0.000000
1.913984 5.032283 0.000000
0.120873 4.647842 0.000000
0.886507 9.975137 0.000000
0.372490 4.935004 0.000000
0.970690 1.783983 0.000000
1.660354 5.130694 0.000000
1.901224 8.140167 0.000000
1.268505 7.768603 0.000000
0.707811 7.885818 0.000000
1.206651 7.080238 0.000000
0.624003 2.542178 0.000000
1.819647 8.620841 0.000000
1.740801 8.934435 0.000000
1.116464 1.941527 0.000000
0.649598 1.304556 0.000000
0.586779 9.756050 0.000000
0.066836 8.683240 0.000000
1.631642 8.932361 0.000000
0.900766 8.863764 0.000000
0.650266 5.416868 0.000000
0.942221 6.464017 0.000000
1.637476 5.453629 0.000000
0.249228 0.512063 0.000000
1.715312 7.455031 0.000000
1.795018 5.053320 0.000000
1.893416 6.477091 0.000000
0.794976 5.026398 0.000000
0.434281 4.918113 0.000000
0.747282 1.717891 0.000000
0.665824 2.787137 0.000000
0.352308 1.588527 0.000000
1.214533 1.956663 0.000000
0.953248 9.729774 0.000000
1.731402 1.531134 0.000000
0.064219 2.692704 0.000000
1.287736 5.905897 0.000000
1.525898 6.101786 0.000000
1.518973 1.539741 0.000000
1.772148 7.937174 0.000000
1.458067 7.852029 0.000000
1.855620 2.373177 0.000000
0.665313 2.886663 0.000000
1.006419 9.379879 0.000000
0.028159 8.256714 0.000000
0.013915 6.977970 0.000000
0.480253 0.822332 0.000000
0.201614 4.182641 0.000000
0.520423 5.593019 0.000000
0.354087 1.874113 0.000000
0.057040 4.482266 0.000000
1.818608 6.010259 0.000000
0.016446 3.273767 0.000000
1.472164 7.809448 0.000000
0.304296 8.404496 0.000000
1.824459 3.236095 0.000000
1.785592 8.386572 0.000000
1.307802 1.035766 0.000000
1.344468 8.377291 0.000000
0.010678 1.527504 0.000000
1.969743 0.829272 0.000000
1.755665 6.417754 0.000000
1.790212 4.719374 0.000000
1.318489 9.078906 0.000000
0.689574 3.631892 0.000000
1.787297 2.871523 0.000000
0.583034 5.007349 0.000000
1.125423 4.559462 0.000000
0.199462 3.444280 0.000000
1.843911 6.937413 0.000000
0.281541 7.595618 0.000000
0.449794 8.529840 0.000000
1.116268 9.728566 0.000000
1.528186 2.666562 0.000000
1.238703 7.160935 0.000000
0.464268 3.942582 0.000000
0.001886 6.770820 0.000000
1.514301 4.759817 0.000000
1.970415 9.937731 0.000000
1.619826 7.289021 0.000000
0.920413 9.524913 0.000000
1.807535 8.349695 0.000000
0.819695 9.029010 0.000000
1.049868 8.144192 0.000000
0.954260 4.591591 0.000000
0.895248 2.517885 0.000000
1.550382 3.703202 0.000000
1.053538 0.202362 0.000000
0.633434 5.239932 0.000000
0.516316 5.050578 0.000000
0.075495 5.252505 0.000000
1.166390 9.740312 0.000000
0.459923 9.114540 0.000000
0.296268 1.617128 0.000000
1.307660 3.688825 0.000000
1.362419 4.239562 0.000000
1.504310 3.605329 0.000000
1.007154 7.984960 0.000000
1.788109 5.240377 0.000000
1.872686 5.720998 0.000000
1.614742 8.530136 0.000000
1.271187 8.059282 0.000000
0.607442 1.322115 0.000000
1.965890 7.139146 0.000000
0.548272 4.354361 0.000000
0.405314 2.946489 0.000000
0.884308 0.500188 0.000000
0.113681 4.872496 0.000000
1.956989 3.554367 0.000000
1.176867 2.515130 0.000000
1.113904 6.946717 0.000000
1.311593 7.694854 0.000000
0.994047 2.447895 0.000000
0.064127 0.494474 0.000000
1.224623 8.487527 0.000000
1.432348 0.099597 0.000000
0.833498 9.371125 0.000000
1.514591 6.276199 0.000000
0.454003 3.218466 0.000000
0.442553 2.464779 0.000000
0.322834 0.090057 0.000000
0.743990 2.354714 0.000000
1.694024 1.377283 0.000000
1.655824 6.121662 0.000000
0.765648 1.665456 0.000000
1.178237 5.286298 0.000000
1.441633 5.901164 0.000000
0.482414 2.980417 0.000000
0.336282 0.350649 0.000000
1.944192 0.372539 0.000000
1.235115 0.263473 0.000000
1.962831 7.391247 0.000000
0.675512 3.180097 0.000000
1.406063 7.963002 0.000000
0.445207 4.317328 0.000000
0.522400 4.529981 0.000000
1.023804 5.128826 0.000000
0.639236 7.130315 0.000000
0.335243 2.735029 0.000000
0.525761 1.215873 0.000000
0.071497 5.560573 0.000000
1.408847 3.269776 0.000000
0.984233 4.424913 0.000000
0.188486 6.469467 0.000000
0.343388 4.941257 0.000000
0.205069 6.202788 0.000000
1.225186 5.442000 0.000000
0.188421 7.397964 0.000000
1.508565 7.059366 0.000000
0.041022 5.341899 0.000000
0.498752 6.789030 0.000000
1.781333 8.735596 0.000000
1.437063 4.322713 0.000000
0.145937 4.127631 0.000000
1.642252 7.642456 0.000000
0.986070 5.825538 0.000000
1.693566 0.710068 0.000000
1.201480 8.921120 0.000000
1.363666 0.307831 0.000000
1.987003 7.483964 0.000000
0.464671 7.587941 0.000000
1.247891 9.531111 0.000000
0.920643 0.541344 0.000000
0.078904 5.968569 0.000000
0.028941 4.278406 0.000000
0.238457 3.306330 0.000000
1.298183 0.903186 0.000000
1.134326 5.626541 0.000000
1.106859 4.790407 0.000000
0.063714 1.045545 0.000000
0.938606 6.124895 0.000000
1.849246 7.379531 0.000000
0.795184 7.672783 0.000000
1.249845 9.053732 0.000000
1.559637 4.094707 0.000000
1.567851 9.530728 0.000000
1.038560 8.654294 0.000000
1.715904 2.965016 0.000000
0.782756 1.592830 0.000000
1.777386 4.353894 0.000000
0.480454 4.018987 0.000000
0.560433 5.757193 0.000000
0.106241 5.833862 0.000000
1.591164 7.499870 0.000000
0.834110 5.098899 0.000000
0.458233 1.048226 0.000000
0.463581 8.582913 0.000000
1.802800 3.097646 0.000000
1.667833 9.712975 0.000000
1.107062 1.178601 0.000000
1.232222 9.582512 0.000000
0.948651 0.910118 0.000000
0.783333 2.310361 0.000000
1.830954 0.465799 0.000000
0.251225 7.051131 0.000000
0.836894 8.502987 0.000000
0.689124 4.340711 0.000000
0.996301 9.285221 0.000000
0.915264 5.902991 0.000000
1.037779 6.300071 0.000000
0.279838 8.454192 0.000000
1.026283 2.968002 0.000000
0.484838 3.542657 0.000000
0.368663 9.059519 0.000000
0.129668 9.009635 0.000000
1.525305 9.764828 0.000000
0.854884 9.018383 0.000000
1.253287 1.273720 0.000000
1.455187 8.237243 0.000000
1.358633 4.098385 0.000000
0.941001 9.908014 0.000000
0.775797 4.722810 0.000000
0.751920 5.538361 0.000000
1.280098 5.297749 0.000000
0.989589 3.217370 0.000000
1.698264 0.750221 0.000000
1.749404 8.956512 0.000000
0.341121 8.026758 0.000000
0.272467 1.395268 0.000000
1.260802 7.767683 0.000000
0.602451 6.258467 0.000000
0.037141 4.091438 0.000000
1.777285 2.540211 0.000000
0.453802 8.597288 0.000000
1.858561 7.001883 0.000000
1.434869 5.477399 0.000000
1.525307 6.095685 0.000000
0.402923 0.910662 0.000000
0.468389 4.739198 0.000000
1.042536 1.937003 0.000000
0.344200 2.083837 0.000000
0.610863 6.613040 0.000000
0.642925 9.112562 0.000000
0.319260 4.037566 0.000000
0.410366 2.077493 0.000000
1.577104 6.487469 0.000000
0.334392 8.711870 0.000000
0.056915 7.483188 0.000000
1.258710 8.687572 0.000000
1.951966 5.365547 0.000000
0.662428 7.518762 0.000000
0.237311 1.400646 0.000000
1.140775 3.482746 0.000000
1.812708 3.895492 0.000000
1.568124 5.112957 0.000000
1.245032 9.290764 0.000000
0.630113 8.742966 0.000000
1.083760 1.345255 0.000000
0.182490 1.727897 0.000000
1.357891 3.576405 0.000000
1.450192 2.907439 0.000000
1.930063 6.147710 0.000000
0.520795 9.027760 0.000000
0.036913 9.622915 0.000000
1.091217 6.536030 0.000000
1.413581 8.381592 0.000000
1.580815 5.252022 0.000000
0.387478 2.083269 0.000000
0.523506 5.246884 0.000000
1.025182 5.550826 0.000000
0.661202 7.424576 0.000000
1.721023 2.198830 0.000000
0.947520 3.683104 0.000000
1.599157 3.640275 0.000000
1.161240 9.594396 0.000000
1.546180 4.439450 0.000000
0.665346 7.550940 0.000000
1.662833 7.508114 0.000000
0.549145 2.655442 0.000000
1.092198 5.718697 0.000000
0.428014 8.943029 0.000000
0.951053 4.751977 0.000000
0.636350 9.451175 0.000000
0.533407 2.144582 0.000000
1.933970 0.741591 0.000000
0.320148 8.914539 0.000000
1.574652 8.476812 0.000000
1.968330 9.925899 0.000000
0.039803 6.793935 0.000000
1.398055 9.366879 0.000000
0.505824 8.269490 0.000000
0.080976 8.444263 0.000000
0.805779 5.691416 0.000000
1.870436 3.823646 0.000000
0.023530 9.345581 0.000000
1.175771 4.321172 0.000000
1.002793 5.388194 0.000000
1.746768 4.461143 0.000000
0.168003 5.648183 0.000000
1.363052 4.705051 0.000000
1.360219 0.479676 0.000000
1.338160 8.820482 0.000000
1.884669 4.443938 0.000000
1.646175 5.889436 0.000000
0.083945 1.391878 0.000000
0.942166 0.033878 0.000000
0.795906 2.452901 0.000000
0.620294 7.045860 0.000000
0.902673 0.991945 0.000000
0.768388 9.088874 0.000000
0.864668 2.150226 0.000000
1.958524 2.045936 0.000000
0.177266 1.815080 0.000000
1.844462 0.139817 0.000000
0.960473 7.718055 0.000000
1.247484 8.750345 0.000000
1.660366 6.141627 0.000000
0.720926 1.882000 0.000000
0.860844 2.852780 0.000000
0.819037 4.759267 0.000000
0.749462 9.543460 0.000000
1.851059 2.473514 0.000000
1.657860 7.316459 0.000000
0.218000 4.394482 0.000000
0.216247 2.978473 0.000000
0.855739 4.559159 0.000000
0.197315 0.712067 0.000000
1.238186 7.986874 0.000000
0.287383 2.433019 0.000000
1.044747 7.254121 0.000000
0.014440 0.683484 0.000000
0.633193 9.550986 0.000000
1.354381 1.930150 0.000000
0.968078 8.827421 0.000000
1.956539 8.094732 0.000000
1.748208 9.678599 0.000000
0.718142 4.778907 0.000000
0.090973 7.273973 0.000000
1.691253 3.707107 0.000000
1.822469 1.843682 0.000000
1.641255 4.430759 0.000000
0.255900 1.657490 0.000000
1.995830 9.820446 0.000000
0.517168 0.962465 0.000000
1.448410 5.892117 0.000000
1.816070 6.264639 0.000000
0.471374 5.380795 0.000000
1.816517 6.621859 0.000000
0.618963 1.161808 0.000000
1.952826 5.550185 0.000000
0.562520 2.872126 0.000000
1.906872 9.401761 0.000000
0.107089 7.620717 0.000000
1.418544 9.725145 0.000000
1.064222 0.375561 0.000000
0.955754 2.851332 0.000000
0.446989 1.954226 0.000000
1.411192 0.111546 0.000000
0.381619 2.423257 0.000000
1.105684 6.787760 0.000000
0.506491 2.310889 0.000000
1.911243 5.090034 0.000000
0.057262 8.878181 0.000000
0.399457 6.937579 0.000000
0.484621 3.946291 0.000000
0.828136 3.724689 0.000000
0.465460 4.557358 0.000000
