<?xml version="1.0" encoding="UTF-8"?>
<svg xmlns="http://www.w3.org/2000/svg" xmlns:xlink="http://www.w3.org/1999/xlink" xmlns:inkscape="http://www.inkscape.org/namespaces/inkscape" xmlns:sodipodi="http://sodipodi.sourceforge.net/DTD/sodipodi-0.dtd" width="800" height="400" viewBox="0 0 800 400">
  <g id="grid">
    <rect x="20" y="20" width="60" height="60" fill="#ff3333"/>
    <rect x="90" y="20" width="60" height="60" fill="#33ff33"/>
    <rect x="160" y="20" width="60" height="60" fill="#3333ff"/>
    <rect x="230" y="20" width="60" height="60" fill="#ffcc33"/>
    <rect x="20" y="90" width="60" height="60" fill="#33ccff"/>
    <rect x="90" y="90" width="60" height="60" fill="#ff33cc"/>
    <rect x="160" y="90" width="60" height="60" fill="#99cc00"/>
    <rect x="230" y="90" width="60" height="60" fill="#cc3300"/>
  </g>
  <circle id="clipShape" cx="150" cy="100" r="90" fill="#000000"/>
  <g id="grid2" transform="translate(440,0)">
    <rect x="20" y="20" width="60" height="60" fill="#ff3333"/>
    <rect x="90" y="20" width="60" height="60" fill="#33ff33"/>
    <rect x="160" y="20" width="60" height="60" fill="#3333ff"/>
    <rect x="20" y="90" width="60" height="60" fill="#ffcc33"/>
    <rect x="90" y="90" width="60" height="60" fill="#33ccff"/>
    <rect x="160" y="90" width="60" height="60" fill="#ff33cc"/>
  </g>
  <rect id="maskShape" x="460" y="20" width="240" height="160" fill="#ffffff"/>
</svg>
